HIERARCHY
ROOT Hips
{
	OFFSET 0.00000 0.00000 0.00000
	CHANNELS 6 Xposition Yposition Zposition Zrotation Yrotation Xrotation 
	JOINT LHipJoint
	{
		OFFSET 0 0 0
		CHANNELS 3 Zrotation Yrotation Xrotation
		JOINT LeftUpLeg
		{
			OFFSET 1.48831 -1.59570 0.95625
			CHANNELS 3 Zrotation Yrotation Xrotation
			JOINT LeftLeg
			{
				OFFSET 2.20856 -6.06797 0.00000
				CHANNELS 3 Zrotation Yrotation Xrotation
				JOINT LeftFoot
				{
					OFFSET 2.62924 -7.22379 0.00000
					CHANNELS 3 Zrotation Yrotation Xrotation
					JOINT LeftToeBase
					{
						OFFSET 0.16802 -0.46163 2.41673
						CHANNELS 3 Zrotation Yrotation Xrotation
						End Site
						{
							OFFSET 0.00000 -0.00000 1.23760
						}
					}
				}
			}
		}
	}
	JOINT RHipJoint
	{
		OFFSET 0 0 0
		CHANNELS 3 Zrotation Yrotation Xrotation
		JOINT RightUpLeg
		{
			OFFSET -1.56796 -1.59570 0.95625
			CHANNELS 3 Zrotation Yrotation Xrotation
			JOINT RightLeg
			{
				OFFSET -2.29239 -6.29829 0.00000
				CHANNELS 3 Zrotation Yrotation Xrotation
				JOINT RightFoot
				{
					OFFSET -2.66963 -7.33475 0.00000
					CHANNELS 3 Zrotation Yrotation Xrotation
					JOINT RightToeBase
					{
						OFFSET -0.18185 -0.49964 2.34359
						CHANNELS 3 Zrotation Yrotation Xrotation
						End Site
						{
							OFFSET -0.00000 -0.00000 1.20477
						}
					}
				}
			}
		}
	}
	JOINT LowerBack
	{
		OFFSET 0 0 0
		CHANNELS 3 Zrotation Yrotation Xrotation
		JOINT Spine
		{
			OFFSET 0.03505 2.15832 -0.34324
			CHANNELS 3 Zrotation Yrotation Xrotation
			JOINT Spine1
			{
				OFFSET -0.01089 2.17963 0.04689
				CHANNELS 3 Zrotation Yrotation Xrotation
				JOINT Neck
				{
					OFFSET 0 0 0
					CHANNELS 3 Zrotation Yrotation Xrotation
					JOINT Neck1
					{
						OFFSET 0.04686 1.69404 0.22159
						CHANNELS 3 Zrotation Yrotation Xrotation
						JOINT Head
						{
							OFFSET 0.00265 1.69305 -0.01513
							CHANNELS 3 Zrotation Yrotation Xrotation
							End Site
							{
								OFFSET -0.00415 1.80215 -0.03034
							}
						}
					}
				}
				JOINT LeftShoulder
				{
					OFFSET 0 0 0
					CHANNELS 3 Zrotation Yrotation Xrotation
					JOINT LeftArm
					{
						OFFSET 3.67184 1.11724 -0.19002
						CHANNELS 3 Zrotation Yrotation Xrotation
						JOINT LeftForeArm
						{
							OFFSET 5.17714 -0.00000 -0.00000
							CHANNELS 3 Zrotation Yrotation Xrotation
							JOINT LeftHand
							{
								OFFSET 3.43679 -0.00000 -0.00000
								CHANNELS 3 Zrotation Yrotation Xrotation
								JOINT LeftFingerBase
								{
									OFFSET 0 0 0
									CHANNELS 3 Zrotation Yrotation Xrotation
									JOINT LeftHandIndex1
									{
										OFFSET 0.57312 -0.00000 -0.00000
										CHANNELS 3 Zrotation Yrotation Xrotation
										End Site
										{
											OFFSET 0.46206 -0.00000 -0.00000
										}
									}
								}
								JOINT LThumb
								{
									OFFSET 0 0 0
									CHANNELS 3 Zrotation Yrotation Xrotation
									End Site
									{
										OFFSET 0.46912 -0.00000 0.46912
									}
								}
							}
						}
					}
				}
				JOINT RightShoulder
				{
					OFFSET 0 0 0
					CHANNELS 3 Zrotation Yrotation Xrotation
					JOINT RightArm
					{
						OFFSET -3.59596 0.95831 -0.26050
						CHANNELS 3 Zrotation Yrotation Xrotation
						JOINT RightForeArm
						{
							OFFSET -5.23908 -0.00000 -0.00000
							CHANNELS 3 Zrotation Yrotation Xrotation
							JOINT RightHand
							{
								OFFSET -3.46485 -0.00000 -0.00000
								CHANNELS 3 Zrotation Yrotation Xrotation
								JOINT RightFingerBase
								{
									OFFSET 0 0 0
									CHANNELS 3 Zrotation Yrotation Xrotation
									JOINT RightHandIndex1
									{
										OFFSET -0.60875 -0.00000 -0.00000
										CHANNELS 3 Zrotation Yrotation Xrotation
										End Site
										{
											OFFSET -0.49079 -0.00000 -0.00000
										}
									}
								}
								JOINT RThumb
								{
									OFFSET 0 0 0
									CHANNELS 3 Zrotation Yrotation Xrotation
									End Site
									{
										OFFSET -0.49829 -0.00000 0.49829
									}
								}
							}
						}
					}
				}
			}
		}
	}
}
MOTION
Frames: 12
Frame Time: 0.05
0.00 0.00 0.00 -177.0780 12.2418 181.3670 0.0000 0.0000 0.0000 -25.4939 20.3348 -20.7165 1.4175 7.5296 21.2940 0.5551 7.8835 -19.0997 0.0143 0.7715 2.1204 0.0000 0.0000 0.0000 19.7622 -7.0831 -4.8238 -7.9071 -16.0505 52.2273 -0.1874 -3.7690 7.7427 -0.0251 -1.0230 2.8120 0.9626 1.1565 -0.2542 -0.9913 1.5494 0.4531 -1.5407 0.7851 0.6591 13.0503 13.2501 4.0316 -11.3413 18.0966 -4.1148 -5.2128 9.1355 0.3506 -0.0000 -0.0000 0.0000 -82.6258 -7.6690 22.5483 17.6349 -27.6871 -4.3783 -0.0000 0.0000 -20.8288 19.4357 11.5022 4.0248 -7.1250 0.0000 -0.0000 -6.9274 42.0547 0.5060 -0.0000 -0.0000 0.0000 89.6405 -7.8264 3.7036 -15.8986 25.3830 -3.6024 0.0000 0.0000 3.9055 -13.8837 -8.3380 2.0528 7.1250 -0.0000 -0.0000 11.1494 -38.3406 1.8560
0.00 0.00 0.00 -177.7140 10.0439 179.9250 0.0000 0.0000 0.0000 -25.5760 19.0207 -16.2000 1.3406 7.3308 20.6991 0.6628 8.5225 -20.7592 0.0035 0.3826 1.0512 0.0000 0.0000 0.0000 15.5336 -1.8452 -14.2162 -10.7857 -17.8286 62.0837 -0.0852 1.9607 -5.1809 -0.3674 3.8935 -10.7773 -0.6679 0.5240 1.6078 -0.9298 0.7427 1.6380 -0.5837 0.3896 0.7798 13.1687 13.2621 4.0144 -11.7741 18.0954 -4.4427 -5.3631 9.1443 0.3103 0.0000 -0.0000 0.0000 -82.9782 -12.8697 26.6847 17.3395 -27.3032 -4.2419 -0.0000 0.0000 -20.9484 19.8625 11.4713 4.1094 -7.1250 0.0000 -0.0000 -6.5432 42.0646 0.4761 0.0000 -0.0000 0.0000 89.8163 -6.2361 6.4643 -18.6778 29.0164 -4.8736 0.0000 0.0000 0.8616 -13.7272 -8.2474 2.0069 7.1250 -0.0000 -0.0000 11.2644 -38.2383 1.9044
0.00 0.00 0.00 -177.2710 7.9465 179.6030 0.0000 0.0000 0.0000 -24.6537 16.5664 -14.2802 1.4721 7.6670 21.7070 0.8612 8.4620 -22.5544 0.0287 1.0930 3.0047 0.0000 0.0000 0.0000 15.0550 2.7916 -16.4433 -9.2751 -16.9815 57.0366 -0.8921 -5.2050 -20.4604 -0.3366 3.7285 -10.3141 -0.9394 0.2362 2.3156 -0.5217 0.3718 2.1464 -0.0128 0.2071 0.8984 13.2812 13.1583 3.9702 -11.7583 17.9439 -4.5868 -5.3863 9.0666 0.2648 0.0000 0.0000 0.0000 -84.7269 -13.9945 27.9983 16.3719 -26.0223 -3.8077 -0.0000 0.0000 -20.2097 19.7128 11.3608 4.0373 -7.1250 0.0000 -0.0000 -6.6566 41.9340 0.5060 0.0000 0.0000 0.0000 89.7189 -6.1603 7.6695 -19.9168 30.5420 -5.4890 0.0000 -0.0000 -0.2825 -13.8445 -8.3030 2.0382 7.1250 -0.0000 -0.0000 11.1760 -38.3025 1.8711
0.00 0.00 0.00 -168.6050 -81.5544 165.4030 0.0000 0.0000 0.0000 -23.6310 11.8564 -2.5282 1.2658 7.1315 20.1056 1.5128 15.8713 -33.5913 0.2155 2.9888 8.2476 0.0000 0.0000 0.0000 17.5785 1.1804 -11.7651 -5.2693 -13.6808 41.9736 -2.6683 -13.9544 -38.2296 -0.0033 -0.3713 1.0203 -0.6054 -0.5902 -0.3073 0.3512 -0.8031 2.1775 0.6796 -0.4247 2.4175 -1.8840 -4.1757 -3.5028 1.0568 -5.5081 0.7643 0.5323 -2.7480 0.8974 -0.0000 0.0000 0.0000 -87.4188 -3.0835 12.6199 10.6520 -17.7529 -1.6683 -0.0000 0.0000 -6.6170 11.6299 18.1165 3.6618 -7.1250 0.0000 -0.0000 -15.7869 47.8051 -1.1189 -0.0000 0.0000 0.0000 86.0439 -4.3743 8.8458 -14.3581 23.2443 -2.9680 0.0000 0.0000 14.6816 -7.7637 -13.3313 1.8006 7.1250 -0.0000 -0.0000 17.6282 -42.7226 1.0252
0.00 0.00 0.00 -2.0871 -30.4616 -0.1720 0.0000 0.0000 0.0000 -5.5197 -2.7166 -13.5695 3.9583 12.1047 36.1035 -0.4977 -12.3904 4.9484 0.0570 -1.5405 -4.2373 0.0000 0.0000 0.0000 24.4795 1.5056 -8.9545 -2.6246 -10.0609 29.1743 -1.8571 -7.0479 -29.0792 -0.3910 -4.0154 11.1199 4.5450 0.7207 2.4980 1.0722 0.9094 4.6571 -1.4332 0.5739 3.4603 10.7148 7.0040 -2.9018 -9.7751 9.0890 -0.7930 -4.4146 4.4653 1.1822 0.0000 -0.0000 0.0000 -77.6708 11.5832 45.2817 30.3896 -41.2250 -11.6655 -0.0000 0.0000 -22.8546 16.8393 13.6736 4.0924 -7.1250 0.0000 -0.0000 -9.6988 44.0250 0.2357 0.0000 -0.0000 0.0000 79.6544 -10.4149 36.6606 -33.9874 44.0754 -14.1043 0.0000 0.0000 2.0887 -17.2870 -6.6011 2.0490 7.1250 -0.0000 -0.0000 8.0028 -36.7867 1.6296
0.00 0.00 0.00 -1.2640 -34.0462 0.1301 0.0000 0.0000 0.0000 -6.4651 -2.2163 -17.4269 4.6246 12.9482 39.1748 -0.0997 -7.3669 -2.4251 0.5379 -4.6992 -13.0527 0.0000 0.0000 0.0000 24.4619 2.3394 -7.9810 -2.3973 -9.6488 27.8468 -1.7499 -5.1504 -27.2818 -0.4403 -4.2576 11.8025 5.6478 0.1971 1.6702 1.5822 0.1486 4.3575 -1.5258 0.2179 3.5809 11.4756 7.5506 -2.5408 -10.6986 9.8110 -1.5170 -4.8036 4.8260 1.0725 -0.0000 0.0000 0.0000 -67.4544 22.9164 58.0950 65.9253 -57.6925 -39.3122 -0.0000 0.0000 -20.3887 16.4144 12.2749 3.5838 -7.1250 0.0000 -0.0000 -9.7599 42.5513 0.5959 -0.0000 0.0000 0.0000 65.0555 -25.0099 52.5612 -72.1212 58.7571 -44.5811 0.0000 0.0000 11.6554 -30.0716 2.1963 -1.2712 7.1250 -0.0000 -0.0000 -2.6789 -27.4394 -1.1442
0.00 0.00 0.00 -0.8163 -37.7353 0.3878 0.0000 0.0000 0.0000 -7.2282 -2.6345 -16.8621 3.6772 11.7179 34.7413 0.0678 -5.6971 -5.7341 0.6070 -4.9868 -13.8709 0.0000 0.0000 0.0000 23.9464 3.2906 -7.5353 -2.3771 -9.6109 27.7257 -1.6925 -2.9911 -25.8046 -0.4254 -4.1860 11.6006 6.0226 -0.0577 1.0488 1.8130 -0.2412 4.1355 -1.5034 0.0292 3.6768 12.3923 8.1468 -2.0569 -11.6921 10.6303 -1.9503 -5.2303 5.2404 1.0657 -0.0000 0.0000 0.0000 -61.3554 28.9459 64.0748 86.3208 -59.9488 -56.8143 -0.0000 0.0000 -14.4158 19.1448 9.6105 3.3170 -7.1250 0.0000 -0.0000 -6.8648 40.0498 0.8423 -0.0000 0.0000 0.0000 54.5346 -31.6705 61.3232 -92.8353 59.9696 -62.4552 0.0000 0.0000 16.0851 -39.4377 7.7618 -6.3387 7.1250 -0.0000 -0.0000 -9.0107 -20.0305 -5.4463
0.00 0.00 0.00 -0.7016 -50.0899 1.9662 0.0000 0.0000 0.0000 -6.2422 -5.7993 -12.2629 1.3688 7.4045 20.9195 -0.2449 -11.2051 -3.3942 0.1146 -2.1822 -6.0095 0.0000 0.0000 0.0000 22.4196 7.6434 -6.7262 -2.3475 -9.5553 27.5482 -1.3343 2.5927 -21.1410 -0.3549 -3.8276 10.5922 6.3795 -0.1104 -0.4084 1.9862 -0.4512 4.0333 -1.5330 -0.0542 4.3852 13.5747 9.8788 -1.0629 -13.4002 12.9163 -4.2384 -5.8931 6.3982 0.7103 0.0000 0.0000 0.0000 -48.5766 35.4348 78.5678 104.9488 -59.1386 -72.9086 -0.0000 0.0000 -2.6392 21.2146 4.6278 1.7938 -7.1250 0.0000 -0.0000 -4.5145 34.9141 1.1210 0.0000 0.0000 0.0000 40.4716 -38.6007 78.9740 -108.3862 58.6833 -75.8526 0.0000 0.0000 22.3438 -47.6173 13.5541 -14.4032 7.1250 -0.0000 -0.0000 -13.3019 -10.7031 -10.9059
0.00 0.00 0.00 -10.2755 -80.4215 12.8575 0.0000 0.0000 0.0000 -12.9611 7.2490 -2.3545 0.3689 3.9011 10.7986 0.2492 -8.2238 -9.8831 0.0500 -1.4428 -3.9680 0.0000 0.0000 0.0000 12.2637 18.3762 -9.0496 -2.3628 -9.5840 27.6397 0.2228 14.8353 -7.6912 -0.1474 -2.4741 6.8178 3.0867 -0.3162 -2.0387 1.0578 -0.6312 3.2704 -0.6751 -0.2428 4.4999 13.4496 12.7169 2.2445 -12.8007 17.0110 -6.2417 -5.7098 8.5236 0.0563 -0.0000 -0.0000 0.0000 -43.9001 34.8118 87.8034 107.9423 -58.7480 -75.4732 -0.0000 -0.0000 5.5786 32.0072 -7.0031 -4.3579 -7.1250 0.0000 -0.0000 3.8029 21.7441 -2.1281 -0.0000 -0.0000 0.0000 43.9673 -40.3035 83.8493 -109.0337 58.5859 -76.4054 0.0000 0.0000 24.1636 -49.2755 13.5897 -15.2664 7.1250 -0.0000 -0.0000 -14.3164 -10.1337 -11.9638
0.00 0.00 0.00 -161.6900 -81.6449 164.5760 0.0000 0.0000 0.0000 -15.7211 13.3061 -10.5266 0.9518 6.2128 17.4032 0.6920 -1.6085 -15.2492 0.0650 -1.6446 -4.5244 0.0000 0.0000 0.0000 14.4269 9.8158 -11.5884 -2.6357 -10.0806 29.2381 -1.1535 -7.8044 -24.5092 -0.0019 -0.2784 0.7649 2.4099 0.9030 -1.0840 -1.6611 1.1754 1.4336 -3.0245 0.6356 2.1640 11.9751 12.8269 3.9480 -12.1099 17.2846 -6.2041 -5.4273 8.7281 -0.3609 0.0000 -0.0000 0.0000 -42.2497 24.1327 92.2795 101.5475 -59.4901 -69.9833 -0.0000 -0.0000 10.1148 45.3235 -16.8052 -16.2991 -7.1250 0.0000 -0.0000 11.1607 7.0947 -9.8911 0.0000 -0.0000 0.0000 52.6814 -31.6513 84.9298 -91.2607 59.9940 -61.0917 0.0000 0.0000 29.7346 -62.4317 12.4369 -22.4165 7.1250 -0.0000 -0.0000 -22.2052 -5.9655 -21.5010
0.00 0.00 0.00 -154.2220 -80.8579 158.5370 0.0000 0.0000 0.0000 -12.2927 6.3528 -7.9973 0.7837 5.6516 15.7767 0.5384 6.2738 -17.5612 0.0546 -1.5080 -4.1477 0.0000 0.0000 0.0000 17.9272 7.6913 -12.4764 -2.2517 -9.3719 26.9656 -1.1332 -5.2954 -22.6718 -0.0407 -1.3022 3.5808 3.8210 -0.0261 -1.4458 0.0147 -0.1082 0.2830 -2.1295 -0.0308 1.0945 -2.0371 -2.6718 -2.2469 6.2966 -3.4337 -5.0307 2.3396 -1.7982 -1.0376 0.0000 0.0000 0.0000 -41.7789 37.2471 91.9894 112.8839 -57.9257 -79.6800 -0.0000 -0.0000 8.1260 45.8615 -15.9217 -15.7856 -7.1250 0.0000 -0.0000 11.6856 8.0768 -10.1468 0.0000 0.0000 0.0000 43.8582 -35.4737 92.1614 -107.5598 58.8022 -75.1461 0.0000 0.0000 28.4221 -63.5849 10.5300 -20.1988 7.1250 -0.0000 -0.0000 -23.4289 -8.6577 -21.5763
0.00 0.00 0.00 -174.6780 -59.6220 185.3880 0.0000 0.0000 0.0000 -16.4509 5.1985 -8.4308 0.2803 3.4054 9.4096 0.1479 22.0669 -32.0855 0.3541 3.8231 10.5796 0.0000 0.0000 0.0000 14.0487 19.8643 -23.9586 -2.4442 -9.7358 28.1253 -0.3588 0.2292 -11.2375 -0.0555 -1.5199 4.1805 -1.5819 -3.8892 -1.2733 1.1462 -5.1886 1.6929 1.8618 -2.6372 2.6981 -8.8812 -17.1951 6.6004 21.3812 -22.8978 -11.4783 7.7584 -12.3685 -0.8336 -0.0000 0.0000 0.0000 -50.8523 31.1082 88.3715 97.7451 -59.7721 -66.7023 -0.0000 -0.0000 7.2264 51.1129 -21.6822 -24.6118 -7.1250 0.0000 -0.0000 13.3573 -1.6015 -14.1103 -0.0000 0.0000 0.0000 37.8933 -9.0121 106.7724 -93.9140 59.9420 -63.3890 0.0000 0.0000 22.9306 -66.0246 9.4367 -20.2380 7.1250 -0.0000 -0.0000 -25.0719 -9.1896 -23.1497
